<svg width="149" height="64" viewBox="0 0 149 64" fill="none" xmlns="http://www.w3.org/2000/svg">
<g clip-path="url(#clip0_415_3)">
<path d="M86.2042 25.9C87.5358 20.4828 84.2885 16 76.3339 16H59.0931L52.6336 42.4946L56.3831 49.0118H68.6479C76.6843 49.0118 82.9102 45.2151 84.5104 38.6151C85.3164 35.2323 84.3819 32.8667 82.2794 31.6839V31.6011C84.2733 30.2932 85.6821 28.2468 86.2042 25.9V25.9ZM75.6915 38.4022C75.3644 39.786 74.4416 41.2054 70.622 41.2054H62.7959L64.1625 35.528H71.9536C75.7265 35.5161 76.0068 36.971 75.6447 38.4022H75.6915ZM77.2567 26.0774C76.9763 27.1419 76.1704 28.443 72.8764 28.443H65.8679L67.036 23.8301H74.0445C77.3735 23.8065 77.537 24.8946 77.2567 26.0774Z" fill="#14A0FF"/>
<path d="M97.0556 36.2258H112.755L114.542 28.4194H98.9479L100.163 23.8065H115.605L117.392 16H92.0446L84.0082 49H112.72L114.6 41.1935H95.8992L97.0556 36.2258Z" fill="#14A0FF"/>
<path d="M119.588 16L117.789 23.8065H127.169L121.013 49H130.86L137.027 23.8065H147.073L149 16H119.588Z" fill="#14A0FF"/>
<path d="M10.3024 49H0.373785L4.67231 31.3763L5.66518 28.7151L3.037 31.3763L0.116808 34.3688L0 25.5688L10.3024 16H18.3271L10.3024 49Z" fill="white"/>
<path d="M46.1507 35.3269L42.9852 29.8979L58.3455 16H44.0365L38.1961 21.6774L18.3855 40.0699L8.87738 49H22.4154L32.5894 39.8097L36.0118 45.7237C37.1799 47.214 38.8269 49.0237 45.812 49.0237H53.9885L46.1624 35.3151L46.1507 35.3269Z" fill="white"/>
<path d="M37.0981 19.8559V19.7849C36.2217 18.5469 35.0523 17.5515 33.6971 16.8902C32.342 16.2289 30.8445 15.9228 29.3421 16H18.771L26.6555 29.5785L37.0981 19.8559Z" fill="white"/>
</g>
<defs>
<clipPath id="clip0_415_3">
<rect width="149" height="33" fill="white" transform="translate(0 16)"/>
</clipPath>
</defs>
</svg>
